<svg width="24" height="24" xmlns="http://www.w3.org/2000/svg">

 <g>
  <title>background</title>
  <rect fill="none" id="canvas_background" height="402" width="582" y="-1" x="-1"/>
 </g>
 <g>
  <title>Layer 1</title>
  <path fill="#566885" id="svg_1" transform="rotate(90 12.5,12.000000000000002) " d="m14.792893,11.5l-3.146446,-3.146447c-0.195262,-0.195262 -0.195262,-0.511844 0,-0.707106c0.195262,-0.195263 0.511844,-0.195263 0.707106,0l4,4c0.195262,0.195262 0.195262,0.511844 0,0.707106l-4,4c-0.195262,0.195262 -0.511844,0.195262 -0.707106,0c-0.195262,-0.195262 -0.195262,-0.511844 0,-0.707106l3.146446,-3.146447l-10.792893,0c-0.276142,0 -0.5,-0.223858 -0.5,-0.5c0,-0.276142 0.223858,-0.5 0.5,-0.5l10.792893,0zm1.207107,-7c-0.276142,0 -0.5,-0.223858 -0.5,-0.5c0,-0.276142 0.223858,-0.5 0.5,-0.5l3,0c1.380712,0 2.5,1.119288 2.5,2.5l0,12c0,1.380712 -1.119288,2.5 -2.5,2.5l-3,0c-0.276142,0 -0.5,-0.223858 -0.5,-0.5c0,-0.276142 0.223858,-0.5 0.5,-0.5l3,0c0.828427,0 1.5,-0.671573 1.5,-1.5l0,-12c0,-0.828427 -0.671573,-1.5 -1.5,-1.5l-3,0z"/>
 </g>
</svg>